<?xml version="1.0" standalone="no"?>
<!DOCTYPE svg PUBLIC "-//W3C//DTD SVG 20010904//EN"
 "http://www.w3.org/TR/2001/REC-SVG-20010904/DTD/svg10.dtd">
<svg version="1.0" xmlns="http://www.w3.org/2000/svg"
 width="748.000000pt" height="748.000000pt" viewBox="0 0 748.000000 748.000000"
 preserveAspectRatio="xMidYMid meet">
<metadata>
Created by potrace 1.11, written by Peter Selinger 2001-2013
</metadata>
<g transform="translate(0.000000,748.000000) scale(0.100000,-0.100000)"
fill="#000000" stroke="none">
<path d="M3190 6295 l0 -105 85 0 85 0 0 105 0 105 -85 0 -85 0 0 -105z"/>
<path d="M7150 6190 l0 -210 -41 45 c-91 98 -225 85 -309 -32 -88 -122 -113
-393 -55 -590 33 -112 121 -203 203 -211 71 -6 114 12 167 70 l45 50 0 -51 0
-51 80 0 80 0 0 595 0 595 -85 0 -85 0 0 -210z m-64 -305 c43 -43 57 -91 62
-216 5 -142 -12 -215 -63 -266 -54 -54 -127 -38 -165 36 -40 80 -50 257 -19
366 6 21 26 54 44 72 43 43 103 46 141 8z"/>
<path d="M1519 6070 c-20 -11 -55 -40 -78 -66 l-41 -47 0 57 0 56 -75 0 -75 0
0 -430 0 -430 79 0 78 0 6 283 c3 165 10 297 16 319 34 110 157 135 199 40 13
-31 17 -88 20 -339 l4 -303 79 0 79 0 0 333 c0 363 -5 407 -57 476 -50 66
-160 90 -234 51z"/>
<path d="M2376 6076 c-60 -22 -88 -47 -121 -107 -27 -49 -30 -63 -30 -144 0
-73 4 -98 22 -131 39 -74 77 -98 248 -159 98 -36 123 -60 111 -108 -15 -63
-96 -93 -163 -60 -33 16 -64 58 -85 113 -2 5 -38 1 -80 -7 -92 -19 -94 -24
-49 -118 33 -71 101 -136 159 -153 52 -16 168 -14 215 2 61 22 103 62 136 127
26 53 31 73 31 137 0 169 -53 226 -284 302 -71 23 -116 56 -116 85 0 9 11 27
25 40 20 21 34 25 84 25 54 0 62 -3 85 -31 14 -17 26 -37 26 -44 0 -8 4 -16 8
-19 8 -5 141 29 150 39 9 9 -17 79 -47 127 -42 67 -93 91 -201 95 -57 2 -98
-1 -124 -11z"/>
<path d="M3939 6071 c-113 -62 -170 -203 -170 -420 -1 -276 94 -441 252 -441
62 0 108 25 150 83 l29 40 0 -109 c0 -128 -15 -164 -75 -184 -66 -22 -145 6
-145 51 0 10 -4 20 -9 23 -8 6 -157 36 -173 36 -18 0 -7 -107 16 -155 48 -101
113 -135 260 -135 127 1 203 36 244 115 43 84 45 110 49 613 l4 482 -80 0 -81
0 0 -52 0 -51 -27 35 c-45 57 -88 81 -151 85 -42 2 -66 -2 -93 -16z m189 -177
c81 -56 105 -301 42 -425 -23 -43 -71 -79 -109 -79 -35 0 -97 67 -111 120 -19
69 -17 235 4 297 30 90 112 131 174 87z"/>
<path d="M5092 6079 c-35 -14 -74 -45 -104 -86 l-28 -37 0 58 0 57 -77 -3 -78
-3 -3 -427 -2 -428 84 0 84 0 4 293 c3 279 4 294 26 334 27 52 56 73 100 73
48 0 67 -14 86 -60 13 -34 16 -87 16 -340 l0 -300 85 0 85 0 0 312 c0 343 -7
414 -50 481 -45 72 -151 107 -228 76z"/>
<path d="M5955 6071 c-46 -20 -105 -82 -134 -139 -47 -93 -71 -273 -52 -404
21 -154 71 -250 156 -303 40 -24 61 -30 122 -33 126 -7 206 48 260 177 12 31
23 61 23 67 0 11 -147 47 -161 39 -4 -3 -10 -18 -14 -34 -9 -44 -51 -81 -91
-81 -62 0 -112 64 -129 168 l-7 42 208 0 207 0 -6 108 c-13 212 -75 340 -191
393 -53 24 -139 24 -191 0z m173 -196 c30 -33 41 -65 45 -130 l2 -30 -117 -3
-118 -3 0 43 c0 52 29 119 61 142 13 9 40 16 60 16 30 0 43 -7 67 -35z"/>
<path d="M240 5768 c0 -167 4 -331 9 -366 14 -91 45 -148 100 -184 41 -26 53
-29 107 -26 71 4 124 35 168 96 l26 37 0 -58 0 -57 75 0 75 0 0 430 0 430 -79
0 -79 0 -4 -292 c-3 -241 -7 -299 -20 -328 -45 -101 -147 -117 -190 -30 -16
31 -18 70 -18 343 l0 307 -85 0 -85 0 0 -302z"/>
<path d="M3190 5640 l0 -430 85 0 85 0 0 430 0 430 -85 0 -85 0 0 -430z"/>
<path d="M2294 4306 c-62 -29 -110 -84 -129 -150 -19 -62 -19 -80 1 -145 18
-63 69 -122 129 -150 53 -25 148 -28 199 -7 47 19 104 73 127 118 106 208
-115 433 -327 334z"/>
<path d="M4019 4302 c-179 -94 -179 -343 0 -434 126 -64 267 -19 334 107 30
56 30 164 0 221 -65 122 -213 169 -334 106z"/>
<path d="M245 3778 c-3 -7 -4 -440 -3 -963 l3 -950 125 0 125 0 3 388 2 387
248 0 c491 0 660 37 794 173 180 182 211 514 68 736 -92 145 -228 210 -477
231 -182 15 -882 13 -888 -2z m903 -228 c93 -10 166 -44 209 -95 112 -131 109
-360 -6 -475 -91 -91 -190 -110 -582 -110 l-269 0 0 345 0 345 283 0 c155 0
319 -4 365 -10z"/>
<path d="M1885 3778 c-3 -7 -4 -440 -3 -963 l3 -950 125 0 125 0 0 960 0 960
-123 3 c-92 2 -124 -1 -127 -10z"/>
<path d="M4527 3783 c-4 -3 -7 -438 -7 -965 l0 -958 713 2 712 3 3 112 3 113
-588 2 -588 3 -3 322 -2 323 527 2 528 3 3 112 3 113 -528 2 -528 3 0 290 0
290 563 3 562 2 0 115 0 115 -683 0 c-376 0 -687 -3 -690 -7z"/>
<path d="M6120 2825 l0 -965 595 0 595 0 0 115 0 115 -470 0 -470 0 -2 848 -3
847 -122 3 -123 3 0 -966z"/>
<path d="M2732 3619 c-211 -41 -262 -330 -78 -443 56 -35 149 -46 211 -26 47
16 111 72 135 121 93 182 -65 387 -268 348z"/>
<path d="M3713 3619 c-76 -14 -139 -63 -179 -139 -26 -50 -24 -152 3 -205 47
-89 123 -135 223 -135 101 0 178 49 219 140 81 179 -73 375 -266 339z"/>
<path d="M2705 2191 c-54 -24 -119 -100 -135 -156 -58 -207 161 -386 351 -287
179 94 179 343 0 435 -67 33 -154 37 -216 8z"/>
<path d="M3550 2197 c-19 -6 -56 -32 -82 -58 -150 -149 -57 -402 153 -417 227
-17 353 242 200 411 -20 22 -54 48 -76 58 -45 21 -139 24 -195 6z"/>
<path d="M2317 1478 c-52 -14 -132 -88 -152 -143 -26 -67 -17 -160 21 -221 42
-69 105 -105 191 -111 61 -4 74 -2 123 24 68 36 114 95 129 164 14 63 7 109
-27 172 -54 101 -166 146 -285 115z"/>
<path d="M4080 1481 c-74 -24 -138 -80 -164 -143 -9 -21 -16 -64 -16 -96 0
-182 188 -297 351 -214 177 89 180 341 6 431 -51 26 -134 36 -177 22z"/>
</g>
</svg>
